<?xml version="1.0" encoding="UTF-8"?>
<svg id="Capa_1" xmlns="http://www.w3.org/2000/svg" version="1.1" xmlns:xlink="http://www.w3.org/1999/xlink" viewBox="0 0 1259.24 661.95">
  <!-- Generator: Adobe Illustrator 29.8.4, SVG Export Plug-In . SVG Version: 2.1.1 Build 6)  -->
  <defs>
    <style>
      .st0 {
        fill: #fff;
      }

      .st1 {
        fill: none;
      }

      .st2 {
        fill: #222;
      }

      .st3 {
        fill: #3b44b2;
      }

      .st4 {
        clip-path: url(#clippath);
      }
    </style>
    <clipPath id="clippath">
      <rect class="st1" x="23.84" y="167.51" width="1196.21" height="384.95"/>
    </clipPath>
  </defs>
  <g class="st4">
    <path d="M480.1,212.65h19.45v81.56h-19.45v-81.56ZM517.11,294.22v-59.17h17.8l.24,8.72c2-2.59,4.71-4.83,7.78-6.72,3.18-1.89,7.31-2.83,12.38-2.83s10.49,1.77,13.91,5.42c3.42,3.65,5.19,8.96,5.19,16.03v38.66h-18.27v-36.42c0-1.89-.35-3.42-.94-4.83-.59-1.41-1.53-2.48-2.71-3.18-1.18-.83-2.71-1.18-4.6-1.18-2.71,0-5.07.59-7.07,1.89-2,1.3-3.77,2.95-5.42,4.95v38.54h-18.5.24v.12ZM618,294.22c-6.48,0-11.55-.71-15.2-2-3.54-1.41-6.01-3.65-7.54-6.72-1.41-3.06-2.12-7.31-2.12-12.38v-23.93h-9.78v-14.03h9.78v-14.14h18.39v14.14h12.26v14.03h-12.26v22.75c0,2.95.47,5.07,1.3,6.25.83,1.3,2.71,1.89,5.54,1.89h5.3v14.14h-5.78.12ZM663.85,295.39c-6.72,0-12.38-1.18-16.97-3.54s-8.13-5.78-10.49-10.37c-2.48-4.6-3.65-10.25-3.65-17.09s1.18-11.79,3.54-16.27c2.36-4.48,5.78-8.01,10.25-10.37,4.48-2.36,10.02-3.54,16.5-3.54s16.27,2.59,21.69,7.9c5.3,5.3,8.01,12.73,8.01,22.39v1.89c0,.83,0,1.41-.24,1.89h-41.25c0,2.36.59,4.6,1.41,6.72.94,2.12,2.24,3.77,4.01,5.07,1.77,1.3,4.24,1.89,7.31,1.89s5.54-.59,7.43-1.89c1.89-1.3,2.83-3.3,2.95-5.89h18.15c-.24,4.83-1.65,8.72-4.13,11.9-2.48,3.06-5.78,5.3-9.9,6.84-4.13,1.41-8.96,2.24-14.5,2.24v.24h-.12ZM651.24,257.21h22.98c0-3.54-1.3-6.13-3.42-7.9-2.12-1.65-4.71-2.59-7.9-2.59s-6.01.94-8.13,2.71c-2.24,1.77-3.3,4.36-3.54,7.78ZM706.04,294.22v-59.17h17.8l.24,10.25c1.41-3.77,3.77-6.48,6.84-8.25,3.06-1.89,6.84-2.83,11.08-2.83h1.18v15.2h-1.53c-2.24,0-4.36,0-6.6.47-2.12.24-4.13.94-5.89,1.77-1.77.94-3.42,2.24-4.71,4.01v38.54h-18.5.12ZM753.54,294.22v-59.17h17.8l.24,8.72c2-2.59,4.71-4.83,7.78-6.72,3.18-1.89,7.31-2.83,12.38-2.83s10.49,1.77,13.91,5.42c3.42,3.65,5.19,8.96,5.19,16.03v38.66h-18.27v-36.42c0-1.89-.35-3.42-.94-4.83-.59-1.41-1.53-2.48-2.71-3.18-1.18-.83-2.71-1.18-4.6-1.18-2.71,0-5.07.59-7.07,1.89-2,1.3-3.77,2.95-5.42,4.95v38.54h-18.5.24v.12ZM843.47,295.28c-3.3,0-6.48-.59-9.55-1.89-2.95-1.3-5.3-3.3-7.19-5.89-1.77-2.59-2.71-5.89-2.71-9.9s1.65-9.66,4.83-12.38c3.18-2.83,7.78-4.71,13.55-5.66,5.78-1.06,12.61-1.65,20.27-1.77v-2.83c0-3.3-.82-5.54-2.36-6.84-1.53-1.3-3.65-1.89-6.13-1.89s-5.19.59-6.95,1.89c-1.77,1.3-2.59,3.42-2.59,6.36h-17.21c0-5.07,1.06-9.08,3.3-12.02,2.24-2.95,5.42-5.07,9.43-6.25,4.01-1.3,8.6-1.89,13.91-1.89s7.66.35,10.96.94c3.3.59,6.01,1.77,8.37,3.3,2.36,1.53,4.13,3.65,5.3,6.25,1.3,2.59,1.89,5.89,1.89,9.78v39.72h-17.21l-.59-7.19c-2.36,2.83-5.19,4.95-8.37,6.25-3.18,1.3-6.84,1.89-10.96,1.89ZM849.84,282.9c2.59,0,5.07-.71,7.31-2.24,2.36-1.41,4.13-3.06,5.42-4.71v-8.6c-7.54,0-12.85.71-15.68,2.12-2.83,1.41-4.36,3.65-4.36,6.84s.71,4.01,2.12,4.95c1.41,1.06,3.18,1.53,5.19,1.53v.12ZM923.39,294.22c-6.48,0-11.55-.71-15.2-2-3.54-1.41-6.01-3.65-7.54-6.72-1.41-3.06-2.12-7.31-2.12-12.38v-23.93h-9.78v-14.03h9.78v-14.14h18.39v14.14h12.26v14.03h-12.26v22.75c0,2.95.47,5.07,1.3,6.25.82,1.3,2.71,1.89,5.54,1.89h5.3v14.14h-5.78.12ZM941.54,235.05h18.5v59.17h-18.5v-59.17ZM950.73,228.56c-3.3,0-5.89-.83-7.54-2.48-1.65-1.65-2.59-3.77-2.59-6.13s.82-4.6,2.59-6.13c1.65-1.65,4.24-2.48,7.54-2.48s5.89.83,7.66,2.48c1.65,1.53,2.59,3.65,2.59,6.13s-.83,4.48-2.59,6.13c-1.65,1.65-4.24,2.48-7.66,2.48M1004.24,295.28c-6.13,0-11.43-1.18-16.15-3.54-4.6-2.36-8.25-5.89-10.84-10.37-2.59-4.48-3.89-10.02-3.89-16.5s1.3-12.14,3.89-16.74c2.59-4.6,6.13-8.13,10.84-10.49,4.6-2.36,10.02-3.54,16.15-3.54s11.55,1.18,16.15,3.54c4.6,2.36,8.25,5.89,10.84,10.49,2.59,4.6,3.89,10.14,3.89,16.74s-1.3,11.9-3.89,16.5c-2.59,4.48-6.25,8.01-10.84,10.37-4.6,2.36-10.02,3.54-16.15,3.54M1004.24,281.25c3.18,0,5.66-.71,7.43-2.24,1.77-1.53,3.06-3.54,3.65-6.01.71-2.48,1.06-5.19,1.06-8.13s-.35-5.78-1.06-8.25c-.71-2.59-1.89-4.6-3.65-6.13-1.77-1.53-4.24-2.36-7.43-2.36s-5.54.83-7.31,2.36c-1.77,1.53-2.95,3.54-3.65,6.13-.71,2.48-1.06,5.3-1.06,8.25s.35,5.66,1.06,8.13c.71,2.48,1.89,4.48,3.65,6.01,1.77,1.53,4.24,2.24,7.31,2.24M1048.56,294.22v-59.17h17.8l.24,8.72c2-2.59,4.71-4.83,7.78-6.72,3.18-1.89,7.31-2.83,12.38-2.83s10.49,1.77,13.91,5.42c3.42,3.65,5.19,8.96,5.19,16.03v38.66h-18.27v-36.42c0-1.89-.35-3.42-.94-4.83-.59-1.41-1.53-2.48-2.71-3.18-1.18-.83-2.71-1.18-4.6-1.18-2.71,0-5.07.59-7.07,1.89-2,1.3-3.77,2.95-5.42,4.95v38.54h-18.5.24v.12ZM1138.49,295.28c-3.3,0-6.48-.59-9.55-1.89-2.95-1.3-5.3-3.3-7.19-5.89-1.77-2.59-2.71-5.89-2.71-9.9s1.65-9.66,4.83-12.38c3.18-2.83,7.78-4.71,13.55-5.66,5.78-1.06,12.61-1.65,20.27-1.77v-2.83c0-3.3-.82-5.54-2.36-6.84-1.53-1.3-3.65-1.89-6.13-1.89s-5.19.59-6.95,1.89c-1.77,1.3-2.59,3.42-2.59,6.36h-17.21c0-5.07,1.06-9.08,3.3-12.02,2.24-2.95,5.42-5.07,9.43-6.25,4.01-1.3,8.6-1.89,13.91-1.89s7.66.35,10.96.94c3.3.59,6.01,1.77,8.37,3.3,2.36,1.53,4.13,3.65,5.3,6.25,1.3,2.59,1.89,5.89,1.89,9.78v39.72h-17.21l-.59-7.19c-2.36,2.83-5.19,4.95-8.37,6.25-3.18,1.3-6.84,1.89-10.96,1.89ZM1144.74,282.9c2.59,0,5.07-.71,7.31-2.24,2.36-1.41,4.13-3.06,5.42-4.71v-8.6c-7.54,0-12.85.71-15.68,2.12-2.83,1.41-4.36,3.65-4.36,6.84s.71,4.01,2.12,4.95c1.41,1.06,3.18,1.53,5.19,1.53v.12ZM1215.81,294.22c-6.48,0-11.55-.71-15.2-2-3.54-1.41-6.01-3.65-7.54-6.72-1.41-3.06-2.12-7.31-2.12-12.38v-60.35h18.39v59.17c0,2.95.35,4.95,1.18,6.25.82,1.3,2.71,1.89,5.54,1.89h4.01v14.26h-4.48.24v-.12Z"/>
    <path d="M480.1,405.95v-81.56h19.45v31h33.83v-31h19.57v81.56h-19.57v-33.36h-33.83v33.36h-19.45ZM598.43,406.89c-6.13,0-11.43-1.18-16.15-3.54-4.6-2.36-8.25-5.89-10.84-10.37-2.59-4.48-3.89-10.02-3.89-16.5s1.3-12.14,3.89-16.74c2.59-4.6,6.13-8.13,10.84-10.49,4.6-2.36,10.02-3.54,16.15-3.54s11.55,1.18,16.15,3.54c4.6,2.36,8.25,5.89,10.84,10.49,2.59,4.6,3.89,10.14,3.89,16.74s-1.3,11.9-3.89,16.5c-2.59,4.48-6.25,8.01-10.84,10.37-4.6,2.36-10.02,3.54-16.15,3.54M598.43,392.99c3.18,0,5.66-.71,7.43-2.24,1.77-1.53,3.06-3.54,3.65-6.01.71-2.48,1.06-5.19,1.06-8.13s-.35-5.78-1.06-8.25c-.71-2.59-1.89-4.6-3.65-6.13s-4.24-2.36-7.43-2.36-5.54.83-7.31,2.36c-1.77,1.53-2.95,3.54-3.65,6.13-.71,2.48-1.06,5.3-1.06,8.25s.35,5.66,1.06,8.13c.71,2.48,1.89,4.48,3.65,6.01,1.77,1.53,4.24,2.24,7.31,2.24M659.72,406.66c-5.66,0-10.14-1.77-13.55-5.42-3.3-3.65-5.07-8.96-5.07-15.91v-38.66h18.39v36.54c0,1.77.35,3.3.94,4.71.59,1.3,1.53,2.36,2.71,3.06,1.18.71,2.71,1.06,4.6,1.06,2.71,0,5.07-.59,7.07-1.89,2-1.3,3.77-2.95,5.54-4.95v-38.54h18.39v59.17h-17.8l-.24-8.84c-2,2.59-4.71,4.83-8.13,6.72-3.42,1.89-7.66,2.83-12.73,2.83l-.12.12ZM739.87,407.13c-3.3,0-6.6-.24-9.78-.83-3.18-.59-6.13-1.53-8.84-2.95-2.59-1.41-4.71-3.42-6.25-5.89-1.53-2.59-2.36-5.78-2.36-9.66h16.85c0,2.83,1.06,4.71,3.18,5.78,2.12,1.06,4.6,1.53,7.19,1.53s4.83-.35,6.13-1.18c1.41-.83,2.12-2.12,2.12-4.01s-.94-3.42-2.95-4.36c-1.89-.94-5.19-2-9.9-3.06-4.01-.94-7.78-2.12-11.08-3.54-3.3-1.41-6.01-3.42-8.01-5.89-1.89-2.48-2.95-5.78-2.95-9.9s.71-6.01,2.24-8.13c1.53-2.24,3.54-4.01,6.01-5.3,2.59-1.3,5.3-2.24,8.49-2.83,3.06-.59,6.13-.94,9.31-.94s6.01.24,8.96.83c2.95.59,5.78,1.53,8.13,2.95,2.48,1.41,4.48,3.3,5.89,5.66,1.53,2.48,2.24,5.54,2.24,9.31h-16.85c0-2.59-.83-4.36-2.59-5.3-1.65-.94-3.54-1.41-5.78-1.41s-4.36.35-5.66.94c-1.3.59-2,1.65-2,3.18s.47,1.65,1.53,2.48c1.06.71,2.59,1.41,4.71,2,2.24.59,5.07,1.3,8.49,2.12,3.65.83,6.95,1.89,9.9,3.3,3.06,1.41,5.54,3.3,7.43,5.66,1.89,2.36,2.83,5.54,2.83,9.43s-.83,6.95-2.36,9.55c-1.53,2.59-3.54,4.6-6.01,6.13-2.48,1.53-5.3,2.59-8.6,3.3-3.18.71-6.36,1.06-9.66,1.06ZM807.64,407.13c-6.72,0-12.38-1.18-16.97-3.54-4.6-2.36-8.13-5.78-10.49-10.37-2.48-4.6-3.65-10.25-3.65-17.09s1.18-11.79,3.54-16.27c2.36-4.48,5.78-8.01,10.25-10.37,4.48-2.36,10.02-3.54,16.5-3.54s16.27,2.59,21.69,7.9c5.3,5.3,8.01,12.73,8.01,22.39v1.89c0,.83,0,1.41-.24,1.89h-41.25c0,2.36.59,4.6,1.41,6.72.94,2.12,2.24,3.77,4.01,5.07,1.77,1.3,4.24,1.89,7.31,1.89s5.54-.59,7.43-1.89c1.89-1.3,2.83-3.3,2.95-5.89h18.15c-.24,4.83-1.65,8.72-4.13,11.9-2.48,3.06-5.78,5.3-9.9,6.84-4.13,1.41-8.96,2.24-14.5,2.24v.24h-.12ZM795.03,368.94h22.98c0-3.54-1.3-6.13-3.42-7.9-2.12-1.65-4.71-2.59-7.9-2.59s-6.01.94-8.13,2.71c-2.24,1.77-3.3,4.36-3.54,7.78Z"/>
    <path class="st3" d="M216.31,167.51c106.3,0,192.47,86.17,192.47,192.47s-86.17,192.47-192.47,192.47S23.84,466.28,23.84,359.98s86.17-192.47,192.47-192.47"/>
    <rect class="st0" x="167.28" y="300.82" width="45.85" height="156.53"/>
    <path class="st0" d="M190.27,243.89c12.69,0,22.98,10.29,22.98,22.98s-10.29,22.98-22.98,22.98-22.98-10.29-22.98-22.98,10.29-22.98,22.98-22.98"/>
    <path class="st0" d="M276.78,237.99h-45.02v219.47h45.02v-88.99c0-37.95,52.92-45.85,52.92,0v88.99h43.85v-109.85c0-66.12-78.26-64-96.89-29.23v-80.38h.12Z"/>
    <path class="st2" d="M510.27,511.56l-18.15-52.45h-.35c0,1.18.24,2.83.35,4.83,0,2,.24,4.24.35,6.48v41.13h-9.43v-62.94h14.5l17.44,50.21h.24l18.03-50.21h14.5v62.94h-9.9v-41.25c0-2.24,0-4.36.24-6.36,0-2,.24-3.65.24-4.83h-.35l-18.74,52.45h-9.08.12Z"/>
    <path class="st2" d="M582.29,463c4.24,0,7.9.83,10.96,2.59,3.06,1.77,5.42,4.24,7.07,7.43,1.65,3.18,2.48,7.07,2.48,11.55v5.42h-31.82c0,4.6,1.3,8.13,3.77,10.73,2.36,2.48,5.66,3.77,10.02,3.77s5.78-.24,8.25-.83c2.48-.59,4.95-1.41,7.54-2.59v8.25c-2.36,1.06-4.83,1.89-7.31,2.48-2.48.47-5.42.83-8.84.83s-8.84-.94-12.38-2.71c-3.54-1.77-6.36-4.48-8.25-8.13-1.89-3.65-2.95-8.13-2.95-13.55s.94-9.9,2.71-13.55c1.77-3.77,4.36-6.6,7.66-8.49,3.3-2,7.07-2.95,11.43-2.95l-.35-.24ZM582.29,470.66c-3.18,0-5.78,1.06-7.78,3.06-2,2.12-3.06,5.07-3.42,9.08h21.69c0-2.36-.47-4.48-1.18-6.25-.71-1.77-1.89-3.3-3.42-4.36-1.53-1.06-3.42-1.53-5.89-1.53M596.31,444.02v.94c-.71.83-1.65,1.77-2.83,2.95-1.18,1.18-2.48,2.36-3.77,3.65-1.41,1.3-2.71,2.48-4.13,3.65-1.3,1.18-2.59,2.12-3.65,2.95h-6.72v-1.06c.94-1.06,2-2.36,3.18-3.89s2.36-3.06,3.42-4.71c1.18-1.65,2.12-3.06,2.83-4.36h11.67v-.12Z"/>
    <polygon class="st2" points="624.6 487.16 608.69 463.82 620.24 463.82 631.08 480.56 641.93 463.82 653.48 463.82 637.45 487.16 654.3 511.56 642.75 511.56 631.08 493.64 619.41 511.56 607.86 511.56 624.6 487.16"/>
    <path class="st2" d="M667.74,445.67c1.53,0,2.95.47,4.01,1.3,1.18.83,1.65,2.24,1.65,4.36s-.59,3.42-1.65,4.36c-1.18.83-2.48,1.3-4.01,1.3s-2.95-.47-4.13-1.3c-1.18-.83-1.65-2.24-1.65-4.36s.59-3.42,1.65-4.36c1.06-.83,2.48-1.3,4.13-1.3M672.69,511.56h-10.14v-47.62h10.14v47.62Z"/>
    <path class="st2" d="M706.4,512.38c-4.48,0-8.37-.83-11.67-2.59-3.3-1.77-5.89-4.36-7.66-8.01-1.77-3.65-2.71-8.25-2.71-13.79s.94-10.49,2.95-14.14c2-3.65,4.6-6.36,8.13-8.13,3.42-1.77,7.43-2.59,11.9-2.59s5.42.24,7.78.83c2.36.59,4.24,1.3,5.89,2l-3.06,8.13c-1.77-.71-3.54-1.3-5.42-1.77-1.89-.47-3.65-.71-5.3-.71-2.83,0-5.07.59-6.95,1.89-1.89,1.3-3.18,3.06-4.13,5.54-.94,2.48-1.3,5.42-1.3,9.08s.47,6.48,1.41,8.84c.94,2.36,2.24,4.24,4.13,5.42,1.77,1.18,4.01,1.89,6.72,1.89s4.95-.35,7.07-.94,4.01-1.41,5.89-2.48v8.72c-1.77,1.06-3.77,1.77-5.78,2.36-2.12.47-4.6.71-7.66.71l-.24-.24Z"/>
    <path class="st2" d="M773.11,487.63c0,4.01-.47,7.43-1.53,10.49-1.06,3.06-2.59,5.66-4.48,7.78-2,2.12-4.36,3.77-7.19,4.83-2.83,1.06-5.89,1.65-9.43,1.65s-6.25-.59-8.96-1.65c-2.71-1.06-5.07-2.71-7.07-4.83-2-2.12-3.54-4.71-4.6-7.78-1.06-3.06-1.65-6.6-1.65-10.49s.94-9.66,2.71-13.32c1.77-3.65,4.48-6.48,7.78-8.37,3.42-1.89,7.43-2.83,12.14-2.83s8.25.94,11.67,2.83c3.42,1.89,6.01,4.71,7.9,8.37,1.89,3.65,2.83,8.13,2.83,13.32h-.12ZM738.57,487.63c0,3.42.47,6.48,1.3,8.96.83,2.48,2.12,4.36,3.89,5.66,1.77,1.3,4.13,2,6.84,2s5.07-.71,6.84-2c1.77-1.3,3.06-3.18,3.89-5.66.83-2.48,1.3-5.42,1.3-8.96s-.47-6.36-1.3-8.84c-.83-2.48-2.12-4.24-3.89-5.54-1.77-1.3-4.13-1.89-6.84-1.89-4.24,0-7.19,1.41-9.19,4.24-1.89,2.83-2.83,6.84-2.83,12.02"/>
  </g>
</svg>